<svg id="icon" fill="none" height="15" viewBox="0 0 15 15" width="15" xmlns="http://www.w3.org/2000/svg"><path clip-rule="evenodd" d="m7 4c-2.20914 0-4 1.79086-4 4 0 2.2091 1.79086 4 4 4 1.33729 0 2.5214-.6557 3.2485-1.6654.1613-.2241.4738-.275.6979-.1136s.2749.4738.1136.6979c-.907 1.2595-2.38753 2.0811-4.06 2.0811-2.76142 0-5-2.2386-5-5 0-2.76142 2.23858-5 5-5 1.63613 0 3.088.78569 4 1.9997v-1.4997c0-.27614.2239-.5.5-.5s.5.22386.5.5v3.5h-3.5c-.27614 0-.5-.22386-.5-.5s.22386-.5.5-.5h1.965c-.69184-1.196-1.98499-2-3.465-2z" fill="var(--color)" fill-rule="evenodd"/></svg>